<?xml version="1.0" encoding="UTF-8"?>
<!DOCTYPE svg PUBLIC "-//W3C//DTD SVG 1.1//EN" "http://www.w3.org/Graphics/SVG/1.1/DTD/svg11.dtd">
<svg xmlns="http://www.w3.org/2000/svg" version="1.1" width="870px" height="485px" style="shape-rendering:geometricPrecision; text-rendering:geometricPrecision; image-rendering:optimizeQuality; fill-rule:evenodd; clip-rule:evenodd" xmlns:xlink="http://www.w3.org/1999/xlink">
<g><path style="opacity:1" fill="#000000" d="M -0.5,-0.5 C 47.1667,-0.5 94.8333,-0.5 142.5,-0.5C 141.692,2.45022 140.358,5.11689 138.5,7.5C 114.824,7.16693 91.1573,7.50026 67.5,8.5C 66.4412,10.5336 65.4412,12.5336 64.5,14.5C 60.663,20.1698 57.3296,26.1698 54.5,32.5C 52.5832,35.331 50.9166,38.331 49.5,41.5C 46.7728,45.5765 44.4394,49.9098 42.5,54.5C 40.0764,57.0078 38.4097,60.0078 37.5,63.5C 34.7417,66.678 32.7417,70.3447 31.5,74.5C 29.0116,77.4658 27.0116,80.7991 25.5,84.5C 23.2495,87.9988 21.2495,91.6654 19.5,95.5C 15.663,101.17 12.3296,107.17 9.5,113.5C 6.58241,118.333 3.91574,123.333 1.5,128.5C 0.833333,128.833 0.166667,129.167 -0.5,129.5C -0.5,86.1667 -0.5,42.8333 -0.5,-0.5 Z"/></g>
<g><path style="opacity:1" fill="#000000" d="M 240.5,-0.5 C 450.167,-0.5 659.833,-0.5 869.5,-0.5C 869.5,87.5 869.5,175.5 869.5,263.5C 857.495,263.333 845.495,263.5 833.5,264C 831.5,267 829.5,270 827.5,273C 804.167,273.333 780.833,273.667 757.5,274C 753.857,278.785 750.857,283.951 748.5,289.5C 746.975,291.216 745.975,293.216 745.5,295.5C 743.137,298.549 741.137,301.882 739.5,305.5C 737.246,309.007 735.246,312.673 733.5,316.5C 731.234,320.034 729.234,323.7 727.5,327.5C 725.515,330.798 723.515,334.131 721.5,337.5C 719.5,341.167 717.5,344.833 715.5,348.5C 713.246,352.007 711.246,355.673 709.5,359.5C 707.308,362.55 705.642,365.883 704.5,369.5C 700.425,374.637 697.092,380.304 694.5,386.5C 691.515,391.798 688.515,397.132 685.5,402.5C 683.308,405.55 681.642,408.883 680.5,412.5C 677.677,416.136 675.344,420.136 673.5,424.5C 671.25,427.999 669.25,431.665 667.5,435.5C 665.515,438.798 663.515,442.131 661.5,445.5C 659.804,448.85 658.137,452.183 656.5,455.5C 653.742,458.678 651.742,462.345 650.5,466.5C 646.663,472.17 643.33,478.17 640.5,484.5C 426.833,484.5 213.167,484.5 -0.5,484.5C -0.5,394.833 -0.5,305.167 -0.5,215.5C 16.5033,215.667 33.5033,215.5 50.5,215C 51.2666,213.53 51.9332,212.03 52.5,210.5C 53.7515,208.999 54.7515,207.332 55.5,205.5C 78.931,205.029 102.264,205.029 125.5,205.5C 128.08,202.011 130.413,198.344 132.5,194.5C 134.246,190.673 136.246,187.007 138.5,183.5C 140.18,180.14 141.847,176.807 143.5,173.5C 146.323,169.864 148.656,165.864 150.5,161.5C 152.692,158.45 154.358,155.117 155.5,151.5C 158.069,148.039 160.403,144.372 162.5,140.5C 164.246,136.673 166.246,133.007 168.5,129.5C 170.196,126.15 171.863,122.817 173.5,119.5C 176.258,116.322 178.258,112.655 179.5,108.5C 182.069,105.039 184.403,101.372 186.5,97.5C 188.167,94.1667 189.833,90.8333 191.5,87.5C 193.818,83.5355 196.152,79.5355 198.5,75.5C 200.196,72.1499 201.863,68.8165 203.5,65.5C 207.071,60.0334 210.404,54.3668 213.5,48.5C 217.167,41.8333 220.833,35.1667 224.5,28.5C 227.025,24.7835 229.025,20.7835 230.5,16.5C 234.071,11.0334 237.404,5.36677 240.5,-0.5 Z"/></g>
<g><path style="opacity:1" fill="#fa3030" d="M 138.5,7.5 C 147.506,7.33356 156.506,7.50023 165.5,8C 163.948,10.9432 162.281,13.7765 160.5,16.5C 158.5,20.1667 156.5,23.8333 154.5,27.5C 150.738,34.6981 146.738,41.6981 142.5,48.5C 134.285,48.2643 126.118,48.2643 118,48.5C 117.536,47.9056 117.369,47.2389 117.5,46.5C 117.5,45.8333 117.5,45.1667 117.5,44.5C 120.258,41.322 122.258,37.6553 123.5,33.5C 127.745,28.563 130.745,22.8963 132.5,16.5C 109.475,17.1562 86.8087,16.4895 64.5,14.5C 65.4412,12.5336 66.4412,10.5336 67.5,8.5C 91.1573,7.50026 114.824,7.16693 138.5,7.5 Z"/></g>
<g><path style="opacity:1" fill="#ef2e2e" d="M 142.5,-0.5 C 175.167,-0.5 207.833,-0.5 240.5,-0.5C 237.404,5.36677 234.071,11.0334 230.5,16.5C 207.167,16.5 183.833,16.5 160.5,16.5C 162.281,13.7765 163.948,10.9432 165.5,8C 156.506,7.50023 147.506,7.33356 138.5,7.5C 140.358,5.11689 141.692,2.45022 142.5,-0.5 Z"/></g>
<g><path style="opacity:1" fill="#e12b2b" d="M 160.5,16.5 C 183.833,16.5 207.167,16.5 230.5,16.5C 229.025,20.7835 227.025,24.7835 224.5,28.5C 201.167,28.1667 177.833,27.8333 154.5,27.5C 156.5,23.8333 158.5,20.1667 160.5,16.5 Z"/></g>
<g><path style="opacity:1" fill="#e92c2c" d="M 64.5,14.5 C 86.8087,16.4895 109.475,17.1562 132.5,16.5C 130.745,22.8963 127.745,28.563 123.5,33.5C 100.327,33.8308 77.3273,33.4975 54.5,32.5C 57.3296,26.1698 60.663,20.1698 64.5,14.5 Z"/></g>
<g><path style="opacity:1" fill="#d82929" d="M 54.5,32.5 C 77.3273,33.4975 100.327,33.8308 123.5,33.5C 122.258,37.6553 120.258,41.322 117.5,44.5C 94.6482,44.1635 71.9816,43.1635 49.5,41.5C 50.9166,38.331 52.5832,35.331 54.5,32.5 Z"/></g>
<g><path style="opacity:1" fill="#cb2727" d="M 154.5,27.5 C 177.833,27.8333 201.167,28.1667 224.5,28.5C 220.833,35.1667 217.167,41.8333 213.5,48.5C 211.897,47.3228 210.564,47.4894 209.5,49C 187.169,49.5 164.836,49.6666 142.5,49.5C 142.5,49.1667 142.5,48.8333 142.5,48.5C 146.738,41.6981 150.738,34.6981 154.5,27.5 Z"/></g>
<g><path style="opacity:1" fill="#cc2727" d="M 49.5,41.5 C 71.9816,43.1635 94.6482,44.1635 117.5,44.5C 117.5,45.1667 117.5,45.8333 117.5,46.5C 115.748,49.672 113.748,52.672 111.5,55.5C 88.6727,54.5025 65.6727,54.1692 42.5,54.5C 44.4394,49.9098 46.7728,45.5765 49.5,41.5 Z"/></g>
<g><path style="opacity:1" fill="#c02525" d="M 42.5,54.5 C 65.6727,54.1692 88.6727,54.5025 111.5,55.5C 110.59,58.9922 108.924,61.9922 106.5,64.5C 83.3273,64.8308 60.3273,64.4975 37.5,63.5C 38.4097,60.0078 40.0764,57.0078 42.5,54.5 Z"/></g>
<g><path style="opacity:1" fill="#ea2d2d" d="M 117.5,46.5 C 117.369,47.2389 117.536,47.9056 118,48.5C 126.118,48.2643 134.285,48.2643 142.5,48.5C 142.5,48.8333 142.5,49.1667 142.5,49.5C 139.515,54.7982 136.515,60.1315 133.5,65.5C 131.308,68.5498 129.642,71.8832 128.5,75.5C 127.5,75.8333 126.833,76.5 126.5,77.5C 117.833,77.5 109.167,77.5 100.5,77.5C 102.757,73.3171 104.757,68.9838 106.5,64.5C 108.924,61.9922 110.59,58.9922 111.5,55.5C 113.748,52.672 115.748,49.672 117.5,46.5 Z"/></g>
<g><path style="opacity:1" fill="#b52222" d="M 213.5,48.5 C 210.404,54.3668 207.071,60.0334 203.5,65.5C 180.167,65.5 156.833,65.5 133.5,65.5C 136.515,60.1315 139.515,54.7982 142.5,49.5C 164.836,49.6666 187.169,49.5 209.5,49C 210.564,47.4894 211.897,47.3228 213.5,48.5 Z"/></g>
<g><path style="opacity:1" fill="#a92020" d="M 133.5,65.5 C 156.833,65.5 180.167,65.5 203.5,65.5C 201.863,68.8165 200.196,72.1499 198.5,75.5C 175.048,75.9294 151.715,75.9294 128.5,75.5C 129.642,71.8832 131.308,68.5498 133.5,65.5 Z"/></g>
<g><path style="opacity:1" fill="#b32222" d="M 37.5,63.5 C 60.3273,64.4975 83.3273,64.8308 106.5,64.5C 104.757,68.9838 102.757,73.3171 100.5,77.5C 100.167,77.5 99.8333,77.5 99.5,77.5C 99.631,76.7611 99.4643,76.0944 99,75.5C 76.6667,75.8333 54.3333,76.1667 32,76.5C 31.5357,75.9056 31.369,75.2389 31.5,74.5C 32.7417,70.3447 34.7417,66.678 37.5,63.5 Z"/></g>
<g><path style="opacity:1" fill="#a72020" d="M 31.5,74.5 C 31.369,75.2389 31.5357,75.9056 32,76.5C 54.3333,76.1667 76.6667,75.8333 99,75.5C 99.4643,76.0944 99.631,76.7611 99.5,77.5C 97.7505,81.3346 95.7505,85.0012 93.5,88.5C 70.8333,87.1667 48.1667,85.8333 25.5,84.5C 27.0116,80.7991 29.0116,77.4658 31.5,74.5 Z"/></g>
<g><path style="opacity:1" fill="#9a1d1d" d="M 128.5,75.5 C 151.715,75.9294 175.048,75.9294 198.5,75.5C 196.152,79.5355 193.818,83.5355 191.5,87.5C 168.167,87.5 144.833,87.5 121.5,87.5C 123.153,84.1932 124.82,80.8599 126.5,77.5C 126.833,76.5 127.5,75.8333 128.5,75.5 Z"/></g>
<g><path style="opacity:1" fill="#9a1d1d" d="M 25.5,84.5 C 48.1667,85.8333 70.8333,87.1667 93.5,88.5C 91.9884,92.2009 89.9884,95.5342 87.5,98.5C 64.6482,98.1635 41.9816,97.1635 19.5,95.5C 21.2495,91.6654 23.2495,87.9988 25.5,84.5 Z"/></g>
<g><path style="opacity:1" fill="#8e1b1b" d="M 121.5,87.5 C 144.833,87.5 168.167,87.5 191.5,87.5C 189.833,90.8333 188.167,94.1667 186.5,97.5C 162.833,97.5 139.167,97.5 115.5,97.5C 117.515,94.1309 119.515,90.7976 121.5,87.5 Z"/></g>
<g><path style="opacity:1" fill="#e6e6e6" d="M 477.5,97.5 C 476.432,98.4345 475.099,98.7678 473.5,98.5C 449.895,96.0771 426.561,97.5771 403.5,103C 392.206,105.966 384.373,112.799 380,123.5C 379.505,125.473 379.338,127.473 379.5,129.5C 376.786,129.75 374.119,129.917 371.5,130C 375.462,121.909 379.295,113.742 383,105.5C 384.543,103.622 386.376,102.122 388.5,101C 418.006,95.3977 447.673,94.2311 477.5,97.5 Z"/></g>
<g><path style="opacity:1" fill="#d02828" d="M 99.5,77.5 C 99.8333,77.5 100.167,77.5 100.5,77.5C 109.167,77.5 117.833,77.5 126.5,77.5C 124.82,80.8599 123.153,84.1932 121.5,87.5C 119.515,90.7976 117.515,94.1309 115.5,97.5C 114.42,99.9962 113.086,102.33 111.5,104.5C 103.499,103.832 95.6656,103.832 88,104.5C 87.2828,103.956 86.7828,103.289 86.5,102.5C 86.8333,101.167 87.1667,99.8333 87.5,98.5C 89.9884,95.5342 91.9884,92.2009 93.5,88.5C 95.7505,85.0012 97.7505,81.3346 99.5,77.5 Z"/></g>
<g><path style="opacity:1" fill="#969696" d="M 477.5,97.5 C 482.19,98.1377 486.856,98.971 491.5,100C 485.293,100.474 479.293,99.9736 473.5,98.5C 475.099,98.7678 476.432,98.4345 477.5,97.5 Z"/></g>
<g><path style="opacity:1" fill="#a0a0a0" d="M 466.5,101.5 C 459.646,101.176 452.979,101.509 446.5,102.5C 439.159,102.666 431.826,102.5 424.5,102C 438.631,100.272 452.631,100.105 466.5,101.5 Z"/></g>
<g><path style="opacity:1" fill="#821919" d="M 115.5,97.5 C 139.167,97.5 162.833,97.5 186.5,97.5C 184.403,101.372 182.069,105.039 179.5,108.5C 156.007,108.444 132.674,108.444 109.5,108.5C 110.167,107.167 110.833,105.833 111.5,104.5C 113.086,102.33 114.42,99.9962 115.5,97.5 Z"/></g>
<g><path style="opacity:1" fill="#e8e8e8" d="M 446.5,102.5 C 452.979,101.509 459.646,101.176 466.5,101.5C 478.959,102.328 491.292,103.994 503.5,106.5C 509.578,113.489 514.245,121.322 517.5,130C 498.018,129.443 478.518,128.943 459,128.5C 431.528,127.823 404.362,130.323 377.5,136C 370.04,138.235 362.706,140.735 355.5,143.5C 362.329,138.423 369.996,134.923 378.5,133C 397.005,128.055 415.838,125.888 435,126.5C 448.002,126.744 461.002,127.078 474,127.5C 484.265,127.715 494.432,126.881 504.5,125C 507.945,122.497 508.445,119.331 506,115.5C 499.873,110.021 492.706,106.521 484.5,105C 471.904,103.104 459.237,102.27 446.5,102.5 Z"/></g>
<g><path style="opacity:1" fill="#871a1a" d="M 19.5,95.5 C 41.9816,97.1635 64.6482,98.1635 87.5,98.5C 87.1667,99.8333 86.8333,101.167 86.5,102.5C 82.8333,108.5 79.1667,114.5 75.5,120.5C 75.2172,119.711 74.7172,119.044 74,118.5C 53,118.833 32,119.167 11,119.5C 10.5,119 10,118.5 9.5,118C 9.96624,116.701 9.96624,115.201 9.5,113.5C 12.3296,107.17 15.663,101.17 19.5,95.5 Z"/></g>
<g><path style="opacity:1" fill="#751616" d="M 179.5,108.5 C 178.258,112.655 176.258,116.322 173.5,119.5C 150.167,119.5 126.833,119.5 103.5,119.5C 105.246,115.673 107.246,112.007 109.5,108.5C 132.674,108.444 156.007,108.444 179.5,108.5 Z"/></g>
<g><path style="opacity:1" fill="#b72323" d="M 86.5,102.5 C 86.7828,103.289 87.2828,103.956 88,104.5C 95.6656,103.832 103.499,103.832 111.5,104.5C 110.833,105.833 110.167,107.167 109.5,108.5C 107.246,112.007 105.246,115.673 103.5,119.5C 102.154,121.537 100.82,123.537 99.5,125.5C 90.9832,125.826 82.6499,125.493 74.5,124.5C 74.8333,123.167 75.1667,121.833 75.5,120.5C 79.1667,114.5 82.8333,108.5 86.5,102.5 Z"/></g>
<g><path style="opacity:1" fill="#e5e5e5" d="M 356.5,120.5 C 360.167,120.5 363.833,120.5 367.5,120.5C 367.665,123.518 367.498,126.518 367,129.5C 365.975,122.793 362.475,120.96 356.5,124C 355.663,125.011 355.33,126.178 355.5,127.5C 358.665,126.964 361.331,127.797 363.5,130C 365.788,130.822 368.122,131.489 370.5,132C 369.975,132.692 369.308,133.192 368.5,133.5C 363.465,131.094 358.131,129.927 352.5,130C 351.19,125.78 352.524,122.613 356.5,120.5 Z"/></g>
<g><path style="opacity:1" fill="#e2e2e2" d="M 521.5,121.5 C 525.514,121.334 529.514,121.501 533.5,122C 537.674,124.354 538.341,127.354 535.5,131C 532.167,131.333 528.833,131.667 525.5,132C 523.671,132.273 522.171,133.107 521,134.5C 520.167,133.667 519.333,132.833 518.5,132C 523.569,130.45 528.569,128.95 533.5,127.5C 533.5,126.5 533.5,125.5 533.5,124.5C 530.859,123.737 528.192,123.57 525.5,124C 524.228,125.307 523.228,126.807 522.5,128.5C 521.526,126.257 521.192,123.924 521.5,121.5 Z"/></g>
<g><path style="opacity:1" fill="#751616" d="M 9.5,113.5 C 9.96624,115.201 9.96624,116.701 9.5,118C 10,118.5 10.5,119 11,119.5C 32,119.167 53,118.833 74,118.5C 74.7172,119.044 75.2172,119.711 75.5,120.5C 75.1667,121.833 74.8333,123.167 74.5,124.5C 72.9263,125.984 71.593,127.651 70.5,129.5C 47.3273,129.831 24.3273,129.498 1.5,128.5C 3.91574,123.333 6.58241,118.333 9.5,113.5 Z"/></g>
<g><path style="opacity:1" fill="#681414" d="M 103.5,119.5 C 126.833,119.5 150.167,119.5 173.5,119.5C 171.863,122.817 170.196,126.15 168.5,129.5C 144.921,130.446 121.254,130.779 97.5,130.5C 98.4408,128.95 99.1075,127.284 99.5,125.5C 100.82,123.537 102.154,121.537 103.5,119.5 Z"/></g>
<g><path style="opacity:1" fill="#d5d5d5" d="M 487.5,132.5 C 485.393,133.468 483.059,133.802 480.5,133.5C 449.945,132.608 419.612,134.441 389.5,139C 401.905,135.377 414.572,133.043 427.5,132C 447.512,131.285 467.512,131.451 487.5,132.5 Z"/></g>
<g><path style="opacity:1" fill="#681414" d="M 1.5,128.5 C 24.3273,129.498 47.3273,129.831 70.5,129.5C 68.7505,133.335 66.7505,137.001 64.5,140.5C 42.8333,140.5 21.1667,140.5 -0.5,140.5C -0.5,136.833 -0.5,133.167 -0.5,129.5C 0.166667,129.167 0.833333,128.833 1.5,128.5 Z"/></g>
<g><path style="opacity:1" fill="#9d9d9d" d="M 487.5,132.5 C 495.234,132.764 502.9,133.597 510.5,135C 501.111,135.913 491.778,137.08 482.5,138.5C 481.432,137.566 480.099,137.232 478.5,137.5C 483.986,136.422 489.652,135.589 495.5,135C 490.316,134.826 485.316,134.326 480.5,133.5C 483.059,133.802 485.393,133.468 487.5,132.5 Z"/></g>
<g><path style="opacity:1" fill="#5c1111" d="M 168.5,129.5 C 166.246,133.007 164.246,136.673 162.5,140.5C 138.759,140.177 115.092,140.511 91.5,141.5C 93.2495,137.665 95.2495,133.999 97.5,130.5C 121.254,130.779 144.921,130.446 168.5,129.5 Z"/></g>
<g><path style="opacity:1" fill="#ececec" d="M 478.5,137.5 C 480.099,137.232 481.432,137.566 482.5,138.5C 480.345,138.372 478.345,138.872 476.5,140C 475.167,140.667 475.167,141.333 476.5,142C 481.584,144.306 486.917,145.472 492.5,145.5C 506.323,146.691 518.99,143.524 530.5,136C 532.167,135.333 533.833,135.333 535.5,136C 539.115,139.619 541.949,143.786 544,148.5C 544.667,149.833 544.667,151.167 544,152.5C 542.686,146.192 539.019,142.192 533,140.5C 522.169,143.666 511.336,146.832 500.5,150C 486.412,152.913 473.745,150.08 462.5,141.5C 467.403,138.607 472.737,137.274 478.5,137.5 Z"/></g>
<g><path style="opacity:1" fill="#9f1e1e" d="M 74.5,124.5 C 82.6499,125.493 90.9832,125.826 99.5,125.5C 99.1075,127.284 98.4408,128.95 97.5,130.5C 95.2495,133.999 93.2495,137.665 91.5,141.5C 90.8333,141.5 90.5,141.833 90.5,142.5C 81.8333,142.5 73.1667,142.5 64.5,142.5C 64.5,141.833 64.5,141.167 64.5,140.5C 66.7505,137.001 68.7505,133.335 70.5,129.5C 71.593,127.651 72.9263,125.984 74.5,124.5 Z"/></g>
<g><path style="opacity:1" fill="#5c1111" d="M -0.5,140.5 C 21.1667,140.5 42.8333,140.5 64.5,140.5C 64.5,141.167 64.5,141.833 64.5,142.5C 62.2519,145.328 60.2519,148.328 58.5,151.5C 39.0071,150.503 19.3404,150.17 -0.5,150.5C -0.5,147.167 -0.5,143.833 -0.5,140.5 Z"/></g>
<g><path style="opacity:1" fill="#500f0f" d="M 162.5,140.5 C 160.403,144.372 158.069,148.039 155.5,151.5C 132.167,151.5 108.833,151.5 85.5,151.5C 87.4203,148.661 89.0869,145.661 90.5,142.5C 90.5,141.833 90.8333,141.5 91.5,141.5C 115.092,140.511 138.759,140.177 162.5,140.5 Z"/></g>
<g><path style="opacity:1" fill="#7f7f7f" d="M 355.5,143.5 C 354.335,145.416 352.668,146.249 350.5,146C 351.91,144.628 353.577,143.795 355.5,143.5 Z"/></g>
<g><path style="opacity:1" fill="#8b1a1a" d="M 64.5,142.5 C 73.1667,142.5 81.8333,142.5 90.5,142.5C 89.0869,145.661 87.4203,148.661 85.5,151.5C 84.8333,152.833 84.1667,154.167 83.5,155.5C 74.8275,155.385 66.3275,155.718 58,156.5C 57.5357,155.906 57.369,155.239 57.5,154.5C 57.5569,153.391 57.8902,152.391 58.5,151.5C 60.2519,148.328 62.2519,145.328 64.5,142.5 Z"/></g>
<g><path style="opacity:1" fill="#500f0f" d="M -0.5,150.5 C 19.3404,150.17 39.0071,150.503 58.5,151.5C 57.8902,152.391 57.5569,153.391 57.5,154.5C 55.7481,157.672 53.7481,160.672 51.5,163.5C 51.631,162.761 51.4643,162.094 51,161.5C 33.8799,161.599 16.7132,161.932 -0.5,162.5C -0.5,158.5 -0.5,154.5 -0.5,150.5 Z"/></g>
<g><path style="opacity:1" fill="#430d0d" d="M 85.5,151.5 C 108.833,151.5 132.167,151.5 155.5,151.5C 154.358,155.117 152.692,158.45 150.5,161.5C 127.048,161.929 103.715,161.929 80.5,161.5C 80.9752,159.216 81.9752,157.216 83.5,155.5C 84.1667,154.167 84.8333,152.833 85.5,151.5 Z"/></g>
<g><path style="opacity:1" fill="#731616" d="M 57.5,154.5 C 57.369,155.239 57.5357,155.906 58,156.5C 66.3275,155.718 74.8275,155.385 83.5,155.5C 81.9752,157.216 80.9752,159.216 80.5,161.5C 79.0787,164.009 77.4121,166.343 75.5,168.5C 66.9832,168.826 58.6499,168.493 50.5,167.5C 50.8333,166.167 51.1667,164.833 51.5,163.5C 53.7481,160.672 55.7481,157.672 57.5,154.5 Z"/></g>
<g><path style="opacity:1" fill="#430c0d" d="M 51.5,163.5 C 51.1667,164.833 50.8333,166.167 50.5,167.5C 47.4598,170.914 45.4598,174.914 44.5,179.5C 52.8333,179.5 61.1667,179.5 69.5,179.5C 69.1667,180.833 68.8333,182.167 68.5,183.5C 66.2519,186.328 64.2519,189.328 62.5,192.5C 54.2845,192.264 46.1178,192.264 38,192.5C 37.5357,191.906 37.369,191.239 37.5,190.5C 37.5,190.167 37.5,189.833 37.5,189.5C 39.7258,186.055 41.7258,182.389 43.5,178.5C 28.8485,177.501 14.1818,177.167 -0.5,177.5C -0.5,172.5 -0.5,167.5 -0.5,162.5C 16.7132,161.932 33.8799,161.599 51,161.5C 51.4643,162.094 51.631,162.761 51.5,163.5 Z"/></g>
<g><path style="opacity:1" fill="#360a0a" d="M 80.5,161.5 C 103.715,161.929 127.048,161.929 150.5,161.5C 148.656,165.864 146.323,169.864 143.5,173.5C 120.167,173.5 96.8333,173.5 73.5,173.5C 74.4408,171.95 75.1075,170.284 75.5,168.5C 77.4121,166.343 79.0787,164.009 80.5,161.5 Z"/></g>
<g><path style="opacity:1" fill="#fa3030" d="M 219.5,170.5 C 226.5,170.5 233.5,170.5 240.5,170.5C 234.31,200.26 227.644,229.926 220.5,259.5C 227.803,260.497 235.137,260.831 242.5,260.5C 241.167,266.166 239.834,271.832 238.5,277.5C 224.182,278.499 209.849,278.833 195.5,278.5C 203.074,242.382 211.074,206.382 219.5,170.5 Z"/></g>
<g><path style="opacity:1" fill="#fa3030" d="M 275.5,170.5 C 287.851,170.168 300.185,170.501 312.5,171.5C 307.509,207.116 302.842,242.783 298.5,278.5C 291.5,278.5 284.5,278.5 277.5,278.5C 278.385,272.531 279.052,266.531 279.5,260.5C 275.167,260.5 270.833,260.5 266.5,260.5C 265.166,266.501 263.832,272.501 262.5,278.5C 255.5,278.5 248.5,278.5 241.5,278.5C 252.831,242.511 264.165,206.511 275.5,170.5 Z"/></g>
<g><path style="opacity:1" fill="#f7f7f7" d="M 338.5,170.5 C 343.179,170.334 347.845,170.501 352.5,171C 350.039,175.421 347.706,179.921 345.5,184.5C 347.743,185.474 350.076,185.808 352.5,185.5C 351.505,191.49 350.505,197.49 349.5,203.5C 341.5,203.5 333.5,203.5 325.5,203.5C 326.187,197.751 327.353,192.084 329,186.5C 332.393,181.28 335.56,175.947 338.5,170.5 Z"/></g>
<g><path style="opacity:1" fill="#f9f9f9" d="M 393.5,212.5 C 392.371,214.628 392.204,216.961 393,219.5C 394.549,216.688 395.382,213.688 395.5,210.5C 397.848,197.108 400.514,183.775 403.5,170.5C 410.833,170.5 418.167,170.5 425.5,170.5C 417.183,206.435 409.183,242.435 401.5,278.5C 394.167,278.5 386.833,278.5 379.5,278.5C 379.471,262.81 379.638,247.144 380,231.5C 376.505,246.816 373.005,262.149 369.5,277.5C 362.197,278.497 354.863,278.831 347.5,278.5C 355.5,242.5 363.5,206.5 371.5,170.5C 379.167,170.5 386.833,170.5 394.5,170.5C 394.106,184.498 393.773,198.498 393.5,212.5 Z"/></g>
<g><path style="opacity:1" fill="#fafafa" d="M 433.5,170.5 C 448.167,170.5 462.833,170.5 477.5,170.5C 476.329,177.519 474.996,184.519 473.5,191.5C 466.167,191.5 458.833,191.5 451.5,191.5C 450.444,198.223 449.111,204.89 447.5,211.5C 454.167,212.167 460.833,212.833 467.5,213.5C 465.374,219.671 464.041,226.004 463.5,232.5C 456.5,232.5 449.5,232.5 442.5,232.5C 440.265,240.703 438.598,249.036 437.5,257.5C 444.833,257.5 452.167,257.5 459.5,257.5C 457.958,264.546 456.291,271.546 454.5,278.5C 439.5,278.5 424.5,278.5 409.5,278.5C 417.5,242.5 425.5,206.5 433.5,170.5 Z"/></g>
<g><path style="opacity:1" fill="#fafafa" d="M 504.5,198.5 C 503.371,200.628 503.204,202.961 504,205.5C 504.791,204.255 505.291,202.922 505.5,201.5C 508.624,191.461 511.957,181.461 515.5,171.5C 522.833,170.167 530.167,170.167 537.5,171.5C 530.414,188.013 523.581,204.679 517,221.5C 516.573,240.505 516.073,259.505 515.5,278.5C 508.167,278.5 500.833,278.5 493.5,278.5C 493.569,266.121 494.069,253.787 495,241.5C 489.455,253.649 484.622,265.982 480.5,278.5C 472.804,278.831 465.138,278.497 457.5,277.5C 465.667,259.167 473.833,240.833 482,222.5C 482.501,205.141 483.335,187.807 484.5,170.5C 491.5,170.5 498.5,170.5 505.5,170.5C 505.167,179.833 504.833,189.167 504.5,198.5 Z"/></g>
<g><path style="opacity:1" fill="#f8f8f8" d="M 544.5,170.5 C 551.5,170.5 558.5,170.5 565.5,170.5C 560.01,196.513 554.177,222.513 548,248.5C 547.333,251.833 547.333,255.167 548,258.5C 553.148,259.388 556.148,257.054 557,251.5C 563.233,224.5 569.4,197.5 575.5,170.5C 582.833,170.5 590.167,170.5 597.5,170.5C 591.077,200.001 584.244,229.334 577,258.5C 567.296,278.293 552.129,284.127 531.5,276C 526.15,271.567 524.15,265.9 525.5,259C 530.748,229.257 537.082,199.757 544.5,170.5 Z"/></g>
<g><path style="opacity:1" fill="#f9f9f9" d="M 604.5,170.5 C 617.837,170.333 631.171,170.5 644.5,171C 651.142,173.311 654.142,177.978 653.5,185C 652.842,196.157 650.008,206.657 645,216.5C 642.591,218.62 640.091,220.62 637.5,222.5C 641.137,224.607 642.804,227.773 642.5,232C 639.095,246.788 635.595,261.622 632,276.5C 625.115,278.441 617.948,279.108 610.5,278.5C 613.259,263.63 616.259,248.797 619.5,234C 619.211,230.346 617.211,228.846 613.5,229.5C 610.241,245.849 606.574,262.182 602.5,278.5C 595.167,278.5 587.833,278.5 580.5,278.5C 588.117,242.416 596.117,206.416 604.5,170.5 Z"/></g>
<g><path style="opacity:1" fill="#f8f8f8" d="M 671.5,170.5 C 683.833,170.5 696.167,170.5 708.5,170.5C 703.691,206.53 699.024,242.53 694.5,278.5C 687.5,278.5 680.5,278.5 673.5,278.5C 673.729,272.768 674.396,267.101 675.5,261.5C 671.5,260.167 667.5,260.167 663.5,261.5C 661.833,266.833 660.167,272.167 658.5,277.5C 651.167,278.833 643.833,278.833 636.5,277.5C 648.017,241.756 659.684,206.089 671.5,170.5 Z"/></g>
<g><path style="opacity:1" fill="#5f1212" d="M 50.5,167.5 C 58.6499,168.493 66.9832,168.826 75.5,168.5C 75.1075,170.284 74.4408,171.95 73.5,173.5C 72.5254,175.795 71.1921,177.795 69.5,179.5C 61.1667,179.5 52.8333,179.5 44.5,179.5C 45.4598,174.914 47.4598,170.914 50.5,167.5 Z"/></g>
<g><path style="opacity:1" fill="#320909" d="M -0.5,177.5 C 14.1818,177.167 28.8485,177.501 43.5,178.5C 41.7258,182.389 39.7258,186.055 37.5,189.5C 25.011,188.505 12.3443,188.171 -0.5,188.5C -0.5,184.833 -0.5,181.167 -0.5,177.5 Z"/></g>
<g><path style="opacity:1" fill="#2a0808" d="M 73.5,173.5 C 96.8333,173.5 120.167,173.5 143.5,173.5C 141.847,176.807 140.18,180.14 138.5,183.5C 115.167,183.5 91.8333,183.5 68.5,183.5C 68.8333,182.167 69.1667,180.833 69.5,179.5C 71.1921,177.795 72.5254,175.795 73.5,173.5 Z"/></g>
<g><path style="opacity:1" fill="#1e0505" d="M 68.5,183.5 C 91.8333,183.5 115.167,183.5 138.5,183.5C 136.246,187.007 134.246,190.673 132.5,194.5C 109.167,194.5 85.8333,194.5 62.5,194.5C 62.5,193.833 62.5,193.167 62.5,192.5C 64.2519,189.328 66.2519,186.328 68.5,183.5 Z"/></g>
<g><path style="opacity:1" fill="#070707" d="M 622.5,190.5 C 624.527,190.338 626.527,190.505 628.5,191C 629.578,191.674 630.245,192.674 630.5,194C 629.84,198.633 628.673,203.133 627,207.5C 624.79,210.29 621.956,211.123 618.5,210C 620.279,203.607 621.612,197.107 622.5,190.5 Z"/></g>
<g><path style="opacity:1" fill="#140503" d="M 288.5,189.5 C 289.376,189.369 290.043,189.702 290.5,190.5C 287.461,208.107 284.794,225.773 282.5,243.5C 279.102,243.82 275.768,243.487 272.5,242.5C 278.34,224.945 283.674,207.278 288.5,189.5 Z"/></g>
<g><path style="opacity:1" fill="#200606" d="M -0.5,188.5 C 12.3443,188.171 25.011,188.505 37.5,189.5C 37.5,189.833 37.5,190.167 37.5,190.5C 35.1933,194.437 32.8599,198.437 30.5,202.5C 30.8076,203.308 31.3076,203.975 32,204.5C 40.0122,204.824 48.1789,204.491 56.5,203.5C 56.1667,204.167 55.8333,204.833 55.5,205.5C 54.7515,207.332 53.7515,208.999 52.5,210.5C 44.2845,210.264 36.1178,210.264 28,210.5C 27.3486,208.765 27.5153,207.098 28.5,205.5C 18.8563,204.502 9.18959,204.168 -0.5,204.5C -0.5,199.167 -0.5,193.833 -0.5,188.5 Z"/></g>
<g><path style="opacity:1" fill="#110303" d="M 62.5,194.5 C 85.8333,194.5 109.167,194.5 132.5,194.5C 130.413,198.344 128.08,202.011 125.5,205.5C 102.264,205.029 78.931,205.029 55.5,205.5C 55.8333,204.833 56.1667,204.167 56.5,203.5C 58.2651,200.291 60.2651,197.291 62.5,194.5 Z"/></g>
<g><path style="opacity:1" fill="#070707" d="M 682.5,213.5 C 681.143,219.31 680.143,225.31 679.5,231.5C 678.728,235.452 678.395,239.452 678.5,243.5C 675.428,243.817 672.428,243.484 669.5,242.5C 674.023,226.703 678.856,211.037 684,195.5C 683.555,201.463 683.055,207.463 682.5,213.5 Z"/></g>
<g><path style="opacity:1" fill="#828282" d="M 504.5,198.5 C 504.263,199.791 504.596,200.791 505.5,201.5C 505.291,202.922 504.791,204.255 504,205.5C 503.204,202.961 503.371,200.628 504.5,198.5 Z"/></g>
<g><path style="opacity:1" fill="#2e0909" d="M 37.5,190.5 C 37.369,191.239 37.5357,191.906 38,192.5C 46.1178,192.264 54.2845,192.264 62.5,192.5C 62.5,193.167 62.5,193.833 62.5,194.5C 60.2651,197.291 58.2651,200.291 56.5,203.5C 48.1789,204.491 40.0122,204.824 32,204.5C 31.3076,203.975 30.8076,203.308 30.5,202.5C 32.8599,198.437 35.1933,194.437 37.5,190.5 Z"/></g>
<g><path style="opacity:1" fill="#110303" d="M -0.5,204.5 C 9.18959,204.168 18.8563,204.502 28.5,205.5C 27.5153,207.098 27.3486,208.765 28,210.5C 36.1178,210.264 44.2845,210.264 52.5,210.5C 51.9332,212.03 51.2666,213.53 50.5,215C 33.5033,215.5 16.5033,215.667 -0.5,215.5C -0.5,211.833 -0.5,208.167 -0.5,204.5 Z"/></g>
<g><path style="opacity:1" fill="#b1b1b1" d="M 395.5,210.5 C 395.382,213.688 394.549,216.688 393,219.5C 392.204,216.961 392.371,214.628 393.5,212.5C 393.435,212.938 393.601,213.272 394,213.5C 394.232,212.263 394.732,211.263 395.5,210.5 Z"/></g>
<g><path style="opacity:1" fill="#a7a7a7" d="M 682.5,213.5 C 682.776,219.845 681.776,225.845 679.5,231.5C 680.143,225.31 681.143,219.31 682.5,213.5 Z"/></g>
<g><path style="opacity:1" fill="#0f0202" d="M 869.5,263.5 C 869.5,268.5 869.5,273.5 869.5,278.5C 863.794,278.829 858.128,278.495 852.5,277.5C 853.246,276.264 853.579,274.93 853.5,273.5C 845.16,273.334 836.827,273.5 828.5,274C 825.928,276.313 824.261,279.146 823.5,282.5C 821.684,284.118 820.351,286.118 819.5,288.5C 819.5,289.167 819.167,289.5 818.5,289.5C 795.167,289.5 771.833,289.5 748.5,289.5C 750.857,283.951 753.857,278.785 757.5,274C 780.833,273.667 804.167,273.333 827.5,273C 829.5,270 831.5,267 833.5,264C 845.495,263.5 857.495,263.333 869.5,263.5 Z"/></g>
<g><path style="opacity:1" fill="#210606" d="M 869.5,278.5 C 869.5,282.5 869.5,286.5 869.5,290.5C 861.951,289.402 854.451,289.402 847,290.5C 847.153,287.826 847.653,285.16 848.5,282.5C 840.167,282.5 831.833,282.5 823.5,282.5C 824.261,279.146 825.928,276.313 828.5,274C 836.827,273.5 845.16,273.334 853.5,273.5C 853.579,274.93 853.246,276.264 852.5,277.5C 858.128,278.495 863.794,278.829 869.5,278.5 Z"/></g>
<g><path style="opacity:1" fill="#2c0908" d="M 823.5,282.5 C 831.833,282.5 840.167,282.5 848.5,282.5C 847.653,285.16 847.153,287.826 847,290.5C 854.451,289.402 861.951,289.402 869.5,290.5C 869.5,293.833 869.5,297.167 869.5,300.5C 859.652,300.827 849.986,300.494 840.5,299.5C 842.14,296.22 843.807,292.886 845.5,289.5C 836.859,288.502 828.192,288.169 819.5,288.5C 820.351,286.118 821.684,284.118 823.5,282.5 Z"/></g>
<g><path style="opacity:1" fill="#1c0505" d="M 748.5,289.5 C 771.833,289.5 795.167,289.5 818.5,289.5C 817.5,291.5 816.5,293.5 815.5,295.5C 792.167,295.5 768.833,295.5 745.5,295.5C 745.975,293.216 746.975,291.216 748.5,289.5 Z"/></g>
<g><path style="opacity:1" fill="#470d0d" d="M 819.5,288.5 C 828.192,288.169 836.859,288.502 845.5,289.5C 843.807,292.886 842.14,296.22 840.5,299.5C 839.833,300.167 839.167,300.833 838.5,301.5C 829.833,301.5 821.167,301.5 812.5,301.5C 813.471,299.517 814.471,297.517 815.5,295.5C 816.5,293.5 817.5,291.5 818.5,289.5C 819.167,289.5 819.5,289.167 819.5,288.5 Z"/></g>
<g><path style="opacity:1" fill="#d2d2d2" d="M 454.5,294.5 C 458.226,294.177 461.893,294.511 465.5,295.5C 460.679,297.903 458.679,301.903 459.5,307.5C 458.5,307.5 457.5,307.5 456.5,307.5C 456.552,303.802 456.886,300.135 457.5,296.5C 455.821,296.715 454.821,296.048 454.5,294.5 Z"/></g>
<g><path style="opacity:1" fill="#d3d3d3" d="M 484.5,294.5 C 485.833,294.5 487.167,294.5 488.5,294.5C 487.519,305.205 489.019,305.872 493,296.5C 494.11,294.963 495.61,294.297 497.5,294.5C 496.673,298.807 496.007,303.14 495.5,307.5C 494.5,307.5 493.5,307.5 492.5,307.5C 492.671,304.203 492.005,303.869 490.5,306.5C 489.311,307.429 487.978,307.762 486.5,307.5C 486.66,305.801 486.494,304.134 486,302.5C 485.36,307.921 484.193,308.421 482.5,304C 482.854,300.727 483.521,297.561 484.5,294.5 Z"/></g>
<g><path style="opacity:1" fill="#d2d2d2" d="M 516.5,294.5 C 520.226,294.177 523.893,294.511 527.5,295.5C 522.679,297.903 520.679,301.903 521.5,307.5C 520.5,307.5 519.5,307.5 518.5,307.5C 518.552,303.802 518.886,300.135 519.5,296.5C 517.821,296.715 516.821,296.048 516.5,294.5 Z"/></g>
<g><path style="opacity:1" fill="#d4d4d4" d="M 390.5,294.5 C 394.106,294.211 397.606,294.544 401,295.5C 400.008,299.295 399.508,303.295 399.5,307.5C 398.5,307.5 397.5,307.5 396.5,307.5C 396.5,305.833 396.5,304.167 396.5,302.5C 392.849,302.162 391.183,303.828 391.5,307.5C 390.5,307.5 389.5,307.5 388.5,307.5C 388.687,303.087 389.354,298.754 390.5,294.5 Z"/></g>
<g><path style="opacity:1" fill="#090909" d="M 393.5,296.5 C 395.167,296.5 396.833,296.5 398.5,296.5C 397.955,299.944 395.955,301.111 392.5,300C 393.337,298.989 393.67,297.822 393.5,296.5 Z"/></g>
<g><path style="opacity:1" fill="#dcdcdc" d="M 404.5,294.5 C 405.552,294.351 406.552,294.517 407.5,295C 408.147,296.609 408.98,298.109 410,299.5C 411.046,297.91 412.213,296.41 413.5,295C 414.635,294.251 415.635,294.417 416.5,295.5C 414.517,297.984 412.35,300.317 410,302.5C 409.506,304.134 409.34,305.801 409.5,307.5C 408.5,307.5 407.5,307.5 406.5,307.5C 406.433,305.599 406.767,303.766 407.5,302C 406.349,299.535 405.349,297.035 404.5,294.5 Z"/></g>
<g><path style="opacity:1" fill="#d9d9d9" d="M 471.5,294.5 C 474.602,294.154 477.435,294.821 480,296.5C 480.357,306.48 476.023,309.48 467,305.5C 465.776,300.626 467.276,296.959 471.5,294.5 Z"/></g>
<g><path style="opacity:1" fill="#111111" d="M 472.5,296.5 C 477.068,296.083 478.568,298.083 477,302.5C 473.832,306.636 471.332,306.469 469.5,302C 469.613,299.601 470.613,297.768 472.5,296.5 Z"/></g>
<g><path style="opacity:1" fill="#d9d9d9" d="M 504.5,294.5 C 507.602,294.154 510.435,294.821 513,296.5C 513.357,306.48 509.023,309.48 500,305.5C 498.776,300.626 500.276,296.959 504.5,294.5 Z"/></g>
<g><path style="opacity:1" fill="#111111" d="M 505.5,296.5 C 510.068,296.083 511.568,298.083 510,302.5C 506.832,306.636 504.332,306.469 502.5,302C 502.613,299.601 503.613,297.768 505.5,296.5 Z"/></g>
<g><path style="opacity:1" fill="#d7d7d7" d="M 430.5,294.5 C 432.124,294.36 433.29,295.027 434,296.5C 434.548,300.17 435.048,303.837 435.5,307.5C 434.167,307.5 432.833,307.5 431.5,307.5C 431.5,306.5 431.5,305.5 431.5,304.5C 428.64,304.084 426.474,305.084 425,307.5C 424.5,307.167 424,306.833 423.5,306.5C 425.845,302.472 428.178,298.472 430.5,294.5 Z"/></g>
<g><path style="opacity:1" fill="#393939" d="M 430.5,298.5 C 431.782,299.708 431.782,301.042 430.5,302.5C 429.374,301.192 429.374,299.858 430.5,298.5 Z"/></g>
<g><path style="opacity:1" fill="#260707" d="M 745.5,295.5 C 768.833,295.5 792.167,295.5 815.5,295.5C 814.471,297.517 813.471,299.517 812.5,301.5C 811.5,302.833 810.5,304.167 809.5,305.5C 786.167,305.5 762.833,305.5 739.5,305.5C 741.137,301.882 743.137,298.549 745.5,295.5 Z"/></g>
<g><path style="opacity:1" fill="#c9c9c9" d="M 535.5,294.5 C 536.833,294.5 538.167,294.5 539.5,294.5C 539.187,297.247 539.52,299.914 540.5,302.5C 542.043,299.914 543.709,297.414 545.5,295C 546.483,294.409 547.15,294.743 547.5,296C 545.633,299.565 543.633,303.065 541.5,306.5C 540.311,307.429 538.978,307.762 537.5,307.5C 536.941,303.147 536.275,298.814 535.5,294.5 Z"/></g>
<g><path style="opacity:1" fill="#d2d2d2" d="M 335.5,294.5 C 336.5,294.5 337.5,294.5 338.5,294.5C 337.417,298.085 336.751,301.751 336.5,305.5C 338.604,305.201 340.604,305.534 342.5,306.5C 339.572,307.484 336.572,307.817 333.5,307.5C 333.426,303.016 334.093,298.683 335.5,294.5 Z"/></g>
<g><path style="opacity:1" fill="#d2d2d2" d="M 347.5,294.5 C 348.5,294.5 349.5,294.5 350.5,294.5C 349.833,298.167 349.167,301.833 348.5,305.5C 350.144,305.714 351.644,305.38 353,304.5C 354.15,301.232 354.984,297.899 355.5,294.5C 356.5,294.5 357.5,294.5 358.5,294.5C 358.695,299.07 357.362,303.07 354.5,306.5C 351.833,307.833 349.167,307.833 346.5,306.5C 346.167,305.5 345.833,304.5 345.5,303.5C 346.172,300.488 346.839,297.488 347.5,294.5 Z"/></g>
<g><path style="opacity:1" fill="#d6d6d6" d="M 361.5,294.5 C 364.292,294.452 366.125,295.785 367,298.5C 368.022,297.646 368.855,296.646 369.5,295.5C 370.723,294.386 372.056,294.219 373.5,295C 368.333,297.835 367.333,301.668 370.5,306.5C 368.182,307.834 366.515,307.168 365.5,304.5C 363.74,307.021 361.407,307.854 358.5,307C 360.684,304.984 362.684,302.817 364.5,300.5C 362.962,298.757 361.962,296.757 361.5,294.5 Z"/></g>
<g><path style="opacity:1" fill="#d5d5d5" d="M 530.5,294.5 C 531.5,294.5 532.5,294.5 533.5,294.5C 532.63,298.98 531.297,303.313 529.5,307.5C 528.419,303.066 528.752,298.733 530.5,294.5 Z"/></g>
<g><path style="opacity:1" fill="#d0d0d0" d="M 440.5,294.5 C 441.5,294.5 442.5,294.5 443.5,294.5C 442.756,298.119 442.423,301.785 442.5,305.5C 443.822,305.67 444.989,305.337 446,304.5C 447.278,301.279 448.111,297.946 448.5,294.5C 449.5,294.5 450.5,294.5 451.5,294.5C 451.24,298.302 450.406,301.969 449,305.5C 446.421,307.347 443.588,307.847 440.5,307C 439.196,306.196 438.529,305.029 438.5,303.5C 439.17,300.481 439.837,297.481 440.5,294.5 Z"/></g>
<g><path style="opacity:1" fill="#dfdfdf" d="M 552.5,301.5 C 551.549,302.919 551.216,304.585 551.5,306.5C 554.059,306.198 556.393,306.532 558.5,307.5C 555.167,307.5 551.833,307.5 548.5,307.5C 548.909,303.124 549.575,298.79 550.5,294.5C 554.226,294.177 557.893,294.511 561.5,295.5C 558.914,296.48 556.247,296.813 553.5,296.5C 553.5,297.5 553.5,298.5 553.5,299.5C 555.604,299.201 557.604,299.534 559.5,300.5C 557.257,301.474 554.924,301.808 552.5,301.5 Z"/></g>
<g><path style="opacity:1" fill="#818181" d="M 552.5,301.5 C 552.5,302.833 552.5,304.167 552.5,305.5C 554.924,305.192 557.257,305.526 559.5,306.5C 559.376,307.107 559.043,307.44 558.5,307.5C 556.393,306.532 554.059,306.198 551.5,306.5C 551.216,304.585 551.549,302.919 552.5,301.5 Z"/></g>
<g><path style="opacity:1" fill="#390b0b" d="M 840.5,299.5 C 849.986,300.494 859.652,300.827 869.5,300.5C 869.5,304.167 869.5,307.833 869.5,311.5C 857.655,311.828 845.988,311.495 834.5,310.5C 835.576,307.352 836.909,304.352 838.5,301.5C 839.167,300.833 839.833,300.167 840.5,299.5 Z"/></g>
<g><path style="opacity:1" fill="#d7d7d7" d="M 375.5,294.5 C 376.5,294.5 377.5,294.5 378.5,294.5C 378.276,298.179 377.942,301.846 377.5,305.5C 379.144,305.714 380.644,305.38 382,304.5C 382.696,301.522 383.196,298.522 383.5,295.5C 384.5,295.5 385.5,295.5 386.5,295.5C 386.594,299.917 385.261,303.75 382.5,307C 379.901,307.769 377.401,307.602 375,306.5C 374.503,302.476 374.669,298.476 375.5,294.5 Z"/></g>
<g><path style="opacity:1" fill="#320909" d="M 739.5,305.5 C 762.833,305.5 786.167,305.5 809.5,305.5C 807.909,308.352 806.576,311.352 805.5,314.5C 804.833,315.167 804.167,315.833 803.5,316.5C 780.167,316.5 756.833,316.5 733.5,316.5C 735.246,312.673 737.246,309.007 739.5,305.5 Z"/></g>
<g><path style="opacity:1" fill="#601212" d="M 812.5,301.5 C 821.167,301.5 829.833,301.5 838.5,301.5C 836.909,304.352 835.576,307.352 834.5,310.5C 833.167,312.167 831.833,313.833 830.5,315.5C 822.35,314.507 814.017,314.174 805.5,314.5C 806.576,311.352 807.909,308.352 809.5,305.5C 810.5,304.167 811.5,302.833 812.5,301.5 Z"/></g>
<g><path style="opacity:1" fill="#450d0d" d="M 834.5,310.5 C 845.988,311.495 857.655,311.828 869.5,311.5C 869.5,315.167 869.5,318.833 869.5,322.5C 855.718,321.585 842.051,321.252 828.5,321.5C 829.167,319.5 829.833,317.5 830.5,315.5C 831.833,313.833 833.167,312.167 834.5,310.5 Z"/></g>
<g><path style="opacity:1" fill="#741616" d="M 805.5,314.5 C 814.017,314.174 822.35,314.507 830.5,315.5C 829.833,317.5 829.167,319.5 828.5,321.5C 827.167,323.167 825.833,324.833 824.5,326.5C 817.345,325.345 810.012,325.178 802.5,326C 801.069,326.465 799.903,327.299 799,328.5C 798.617,327.944 798.117,327.611 797.5,327.5C 797.5,327.167 797.5,326.833 797.5,326.5C 800,323.506 802,320.173 803.5,316.5C 804.167,315.833 804.833,315.167 805.5,314.5 Z"/></g>
<g><path style="opacity:1" fill="#3f0c0c" d="M 733.5,316.5 C 756.833,316.5 780.167,316.5 803.5,316.5C 802,320.173 800,323.506 797.5,326.5C 774.092,326.177 750.758,326.511 727.5,327.5C 729.234,323.7 731.234,320.034 733.5,316.5 Z"/></g>
<g><path style="opacity:1" fill="#520f0f" d="M 828.5,321.5 C 842.051,321.252 855.718,321.585 869.5,322.5C 869.5,325.833 869.5,329.167 869.5,332.5C 853.995,333.511 838.328,333.511 822.5,332.5C 823.167,330.5 823.833,328.5 824.5,326.5C 825.833,324.833 827.167,323.167 828.5,321.5 Z"/></g>
<g><path style="opacity:1" fill="#4b0e0e" d="M 797.5,326.5 C 797.5,326.833 797.5,327.167 797.5,327.5C 795.754,331.327 793.754,334.993 791.5,338.5C 768.167,338.167 744.833,337.833 721.5,337.5C 723.515,334.131 725.515,330.798 727.5,327.5C 750.758,326.511 774.092,326.177 797.5,326.5 Z"/></g>
<g><path style="opacity:1" fill="#8a1a1a" d="M 824.5,326.5 C 823.833,328.5 823.167,330.5 822.5,332.5C 820.252,335.328 818.252,338.328 816.5,341.5C 808.22,340.88 799.554,340.547 790.5,340.5C 790.833,339.833 791.167,339.167 791.5,338.5C 793.754,334.993 795.754,331.327 797.5,327.5C 798.117,327.611 798.617,327.944 799,328.5C 799.903,327.299 801.069,326.465 802.5,326C 810.012,325.178 817.345,325.345 824.5,326.5 Z"/></g>
<g><path style="opacity:1" fill="#5e1212" d="M 822.5,332.5 C 838.328,333.511 853.995,333.511 869.5,332.5C 869.5,336.167 869.5,339.833 869.5,343.5C 851.659,343.83 833.992,343.497 816.5,342.5C 816.5,342.167 816.5,341.833 816.5,341.5C 818.252,338.328 820.252,335.328 822.5,332.5 Z"/></g>
<g><path style="opacity:1" fill="#581111" d="M 721.5,337.5 C 744.833,337.833 768.167,338.167 791.5,338.5C 791.167,339.167 790.833,339.833 790.5,340.5C 788.819,343.203 787.153,345.869 785.5,348.5C 762.167,348.5 738.833,348.5 715.5,348.5C 717.5,344.833 719.5,341.167 721.5,337.5 Z"/></g>
<g><path style="opacity:1" fill="#6b1414" d="M 816.5,342.5 C 833.992,343.497 851.659,343.83 869.5,343.5C 869.5,347.167 869.5,350.833 869.5,354.5C 849.66,354.83 829.993,354.497 810.5,353.5C 812.25,349.665 814.25,345.999 816.5,342.5 Z"/></g>
<g><path style="opacity:1" fill="#651313" d="M 715.5,348.5 C 738.833,348.5 762.167,348.5 785.5,348.5C 784.358,352.117 782.692,355.45 780.5,358.5C 780.5,359.167 780.167,359.5 779.5,359.5C 756.167,359.5 732.833,359.5 709.5,359.5C 711.246,355.673 713.246,352.007 715.5,348.5 Z"/></g>
<g><path style="opacity:1" fill="#a41f1f" d="M 790.5,340.5 C 799.554,340.547 808.22,340.88 816.5,341.5C 816.5,341.833 816.5,342.167 816.5,342.5C 814.25,345.999 812.25,349.665 810.5,353.5C 809.167,355.5 807.833,357.5 806.5,359.5C 798.016,358.507 789.349,358.174 780.5,358.5C 782.692,355.45 784.358,352.117 785.5,348.5C 787.153,345.869 788.819,343.203 790.5,340.5 Z"/></g>
<g><path style="opacity:1" fill="#711515" d="M 709.5,359.5 C 732.833,359.5 756.167,359.5 779.5,359.5C 777.847,362.807 776.18,366.14 774.5,369.5C 751.06,370.379 727.727,370.379 704.5,369.5C 705.642,365.883 707.308,362.55 709.5,359.5 Z"/></g>
<g><path style="opacity:1" fill="#7c1717" d="M 810.5,353.5 C 829.993,354.497 849.66,354.83 869.5,354.5C 869.5,359.833 869.5,365.167 869.5,370.5C 846.661,370.831 823.994,370.497 801.5,369.5C 803.167,366.167 804.833,362.833 806.5,359.5C 807.833,357.5 809.167,355.5 810.5,353.5 Z"/></g>
<g><path style="opacity:1" fill="#7f1818" d="M 704.5,369.5 C 727.727,370.379 751.06,370.379 774.5,369.5C 772.308,372.55 770.642,375.883 769.5,379.5C 767.588,381.657 765.921,383.991 764.5,386.5C 741.167,386.5 717.833,386.5 694.5,386.5C 697.092,380.304 700.425,374.637 704.5,369.5 Z"/></g>
<g><path style="opacity:1" fill="#be2424" d="M 780.5,358.5 C 789.349,358.174 798.016,358.507 806.5,359.5C 804.833,362.833 803.167,366.167 801.5,369.5C 799.416,373.336 797.083,377.003 794.5,380.5C 786.585,380.326 778.252,379.992 769.5,379.5C 770.642,375.883 772.308,372.55 774.5,369.5C 776.18,366.14 777.847,362.807 779.5,359.5C 780.167,359.5 780.5,359.167 780.5,358.5 Z"/></g>
<g><path style="opacity:1" fill="#010000" d="M 869.5,374.5 C 869.5,411.167 869.5,447.833 869.5,484.5C 825.5,484.5 781.5,484.5 737.5,484.5C 738.847,481.807 740.18,479.14 741.5,476.5C 765.169,476.667 788.836,476.5 812.5,476C 813.252,475.329 813.586,474.496 813.5,473.5C 817.53,467.447 821.197,461.114 824.5,454.5C 828.198,448.777 831.531,442.777 834.5,436.5C 836.405,433.696 838.071,430.696 839.5,427.5C 842.084,423.334 844.417,419 846.5,414.5C 849.258,411.322 851.258,407.655 852.5,403.5C 855.258,400.322 857.258,396.655 858.5,392.5C 862.167,386.5 865.833,380.5 869.5,374.5 Z"/></g>
<g><path style="opacity:1" fill="#911b1b" d="M 801.5,369.5 C 823.994,370.497 846.661,370.831 869.5,370.5C 869.5,371.833 869.5,373.167 869.5,374.5C 865.833,380.5 862.167,386.5 858.5,392.5C 835.327,392.831 812.327,392.498 789.5,391.5C 791.424,387.983 793.091,384.316 794.5,380.5C 797.083,377.003 799.416,373.336 801.5,369.5 Z"/></g>
<g><path style="opacity:1" fill="#951c1c" d="M 694.5,386.5 C 717.833,386.5 741.167,386.5 764.5,386.5C 762.003,392.165 759.003,397.498 755.5,402.5C 732.167,402.5 708.833,402.5 685.5,402.5C 688.515,397.132 691.515,391.798 694.5,386.5 Z"/></g>
<g><path style="opacity:1" fill="#a31f1f" d="M 789.5,391.5 C 812.327,392.498 835.327,392.831 858.5,392.5C 857.258,396.655 855.258,400.322 852.5,403.5C 829.673,402.502 806.673,402.169 783.5,402.5C 784.742,398.345 786.742,394.678 789.5,391.5 Z"/></g>
<g><path style="opacity:1" fill="#d62929" d="M 769.5,379.5 C 778.252,379.992 786.585,380.326 794.5,380.5C 793.091,384.316 791.424,387.983 789.5,391.5C 786.742,394.678 784.742,398.345 783.5,402.5C 782.167,404.167 780.833,405.833 779.5,407.5C 779.217,406.711 778.717,406.044 778,405.5C 770.334,406.168 762.501,406.168 754.5,405.5C 755.11,404.609 755.443,403.609 755.5,402.5C 759.003,397.498 762.003,392.165 764.5,386.5C 765.921,383.991 767.588,381.657 769.5,379.5 Z"/></g>
<g><path style="opacity:1" fill="#af2121" d="M 783.5,402.5 C 806.673,402.169 829.673,402.502 852.5,403.5C 851.258,407.655 849.258,411.322 846.5,414.5C 823.673,413.502 800.673,413.169 777.5,413.5C 778.167,411.5 778.833,409.5 779.5,407.5C 780.833,405.833 782.167,404.167 783.5,402.5 Z"/></g>
<g><path style="opacity:1" fill="#a31f1f" d="M 685.5,402.5 C 708.833,402.5 732.167,402.5 755.5,402.5C 755.443,403.609 755.11,404.609 754.5,405.5C 753.167,407.833 751.833,410.167 750.5,412.5C 727.167,412.5 703.833,412.5 680.5,412.5C 681.642,408.883 683.308,405.55 685.5,402.5 Z"/></g>
<g><path style="opacity:1" fill="#e72c2c" d="M 754.5,405.5 C 762.501,406.168 770.334,406.168 778,405.5C 778.717,406.044 779.217,406.711 779.5,407.5C 778.833,409.5 778.167,411.5 777.5,413.5C 775.076,416.008 773.41,419.008 772.5,422.5C 771.272,423.306 770.272,424.306 769.5,425.5C 761.35,424.507 753.017,424.174 744.5,424.5C 746.066,420.272 748.066,416.272 750.5,412.5C 751.833,410.167 753.167,407.833 754.5,405.5 Z"/></g>
<g><path style="opacity:1" fill="#af2121" d="M 680.5,412.5 C 703.833,412.5 727.167,412.5 750.5,412.5C 748.066,416.272 746.066,420.272 744.5,424.5C 744.167,424.5 743.833,424.5 743.5,424.5C 720.285,424.071 696.952,424.071 673.5,424.5C 675.344,420.136 677.677,416.136 680.5,412.5 Z"/></g>
<g><path style="opacity:1" fill="#bb2424" d="M 777.5,413.5 C 800.673,413.169 823.673,413.502 846.5,414.5C 844.417,419 842.084,423.334 839.5,427.5C 838.992,425.767 838.159,425.434 837,426.5C 836.667,425.5 836.333,424.5 836,423.5C 815,423.833 794,424.167 773,424.5C 772.536,423.906 772.369,423.239 772.5,422.5C 773.41,419.008 775.076,416.008 777.5,413.5 Z"/></g>
<g><path style="opacity:1" fill="#bc2424" d="M 743.5,424.5 C 741.847,427.807 740.18,431.14 738.5,434.5C 714.759,434.177 691.092,434.511 667.5,435.5C 669.25,431.665 671.25,427.999 673.5,424.5C 696.952,424.071 720.285,424.071 743.5,424.5 Z"/></g>
<g><path style="opacity:1" fill="#c82626" d="M 772.5,422.5 C 772.369,423.239 772.536,423.906 773,424.5C 794,424.167 815,423.833 836,423.5C 836.333,424.5 836.667,425.5 837,426.5C 838.159,425.434 838.992,425.767 839.5,427.5C 838.071,430.696 836.405,433.696 834.5,436.5C 811.5,435.833 788.5,435.167 765.5,434.5C 767.105,431.622 768.439,428.622 769.5,425.5C 770.272,424.306 771.272,423.306 772.5,422.5 Z"/></g>
<g><path style="opacity:1" fill="#c82626" d="M 738.5,434.5 C 736.403,438.372 734.069,442.039 731.5,445.5C 708.167,445.5 684.833,445.5 661.5,445.5C 663.515,442.131 665.515,438.798 667.5,435.5C 691.092,434.511 714.759,434.177 738.5,434.5 Z"/></g>
<g><path style="opacity:1" fill="#da2a29" d="M 765.5,434.5 C 788.5,435.167 811.5,435.833 834.5,436.5C 831.531,442.777 828.198,448.777 824.5,454.5C 824.25,453.078 823.417,452.078 822,451.5C 799.889,452.132 777.723,452.465 755.5,452.5C 758.342,446.143 761.675,440.143 765.5,434.5 Z"/></g>
<g><path style="opacity:1" fill="#fa3030" d="M 743.5,424.5 C 743.833,424.5 744.167,424.5 744.5,424.5C 753.017,424.174 761.35,424.507 769.5,425.5C 768.439,428.622 767.105,431.622 765.5,434.5C 761.675,440.143 758.342,446.143 755.5,452.5C 751.481,458.694 747.814,465.194 744.5,472C 767.67,472.168 790.67,472.668 813.5,473.5C 813.586,474.496 813.252,475.329 812.5,476C 788.836,476.5 765.169,476.667 741.5,476.5C 732.808,476.831 724.141,476.498 715.5,475.5C 717.432,472.634 719.099,469.634 720.5,466.5C 722.754,462.993 724.754,459.327 726.5,455.5C 728.692,452.45 730.358,449.117 731.5,445.5C 734.069,442.039 736.403,438.372 738.5,434.5C 740.18,431.14 741.847,427.807 743.5,424.5 Z"/></g>
<g><path style="opacity:1" fill="#d52828" d="M 661.5,445.5 C 684.833,445.5 708.167,445.5 731.5,445.5C 730.358,449.117 728.692,452.45 726.5,455.5C 703.06,456.379 679.727,456.379 656.5,455.5C 658.137,452.183 659.804,448.85 661.5,445.5 Z"/></g>
<g><path style="opacity:1" fill="#e12b2b" d="M 656.5,455.5 C 679.727,456.379 703.06,456.379 726.5,455.5C 724.754,459.327 722.754,462.993 720.5,466.5C 697.167,466.5 673.833,466.5 650.5,466.5C 651.742,462.345 653.742,458.678 656.5,455.5 Z"/></g>
<g><path style="opacity:1" fill="#f02e2e" d="M 824.5,454.5 C 821.197,461.114 817.53,467.447 813.5,473.5C 790.67,472.668 767.67,472.168 744.5,472C 747.814,465.194 751.481,458.694 755.5,452.5C 777.723,452.465 799.889,452.132 822,451.5C 823.417,452.078 824.25,453.078 824.5,454.5 Z"/></g>
<g><path style="opacity:1" fill="#f02e2e" d="M 650.5,466.5 C 673.833,466.5 697.167,466.5 720.5,466.5C 719.099,469.634 717.432,472.634 715.5,475.5C 724.141,476.498 732.808,476.831 741.5,476.5C 740.18,479.14 738.847,481.807 737.5,484.5C 705.167,484.5 672.833,484.5 640.5,484.5C 643.33,478.17 646.663,472.17 650.5,466.5 Z"/></g>
</svg>
